<svg width="76" height="14" viewBox="0 0 76 14" fill="none" xmlns="http://www.w3.org/2000/svg">
<path d="M3.876 12.18C2.988 12.18 2.24 11.82 1.632 11.1C1.024 10.38 0.72 9.332 0.72 7.956C0.72 6.94 0.884 6.016 1.212 5.184C1.54 4.344 2.052 3.66 2.748 3.132C3.452 2.596 4.244 2.328 5.124 2.328C6.004 2.328 6.644 2.544 7.044 2.976C7.444 3.4 7.644 3.888 7.644 4.44C7.644 4.992 7.504 5.436 7.224 5.772C6.944 6.1 6.58 6.264 6.132 6.264C5.988 6.264 5.812 6.232 5.604 6.168C5.788 5.976 5.948 5.708 6.084 5.364C6.228 5.012 6.3 4.66 6.3 4.308C6.3 3.956 6.204 3.656 6.012 3.408C5.828 3.152 5.532 3.024 5.124 3.024C4.508 3.024 3.956 3.28 3.468 3.792C2.988 4.296 2.624 4.92 2.376 5.664C2.136 6.4 2.016 7.16 2.016 7.944C2.016 9.048 2.228 9.876 2.652 10.428C3.076 10.972 3.624 11.244 4.296 11.244C4.744 11.244 5.204 11.108 5.676 10.836C6.148 10.564 6.536 10.172 6.84 9.66C6.96 9.66 7.072 9.696 7.176 9.768C7.28 9.84 7.332 9.912 7.332 9.984C6.884 10.832 6.32 11.42 5.64 11.748C5.048 12.036 4.46 12.18 3.876 12.18ZM13.4519 8.064C13.4519 7.28 13.3519 6.72 13.1519 6.384C12.9599 6.04 12.6799 5.868 12.3119 5.868C11.9519 5.868 11.5879 6.048 11.2199 6.408C10.8519 6.76 10.5599 7.2 10.3439 7.728C10.1359 8.248 10.0319 8.792 10.0319 9.36C10.0319 9.92 10.1399 10.408 10.3559 10.824C10.5719 11.232 10.8999 11.436 11.3399 11.436C11.9639 11.436 12.4719 11.068 12.8639 10.332C13.2559 9.596 13.4519 8.84 13.4519 8.064ZM9.97191 7.596C10.2759 6.732 10.6839 6.104 11.1959 5.712C11.7159 5.312 12.2399 5.112 12.7679 5.112C13.3039 5.112 13.7479 5.348 14.0999 5.82C14.4519 6.284 14.6279 6.916 14.6279 7.716C14.6279 8.596 14.4599 9.412 14.1239 10.164C13.7479 10.996 13.2039 11.576 12.4919 11.904C12.1079 12.088 11.6839 12.18 11.2199 12.18C10.5719 12.18 10.0039 11.912 9.51591 11.376C9.02791 10.832 8.78391 10.06 8.78391 9.06C8.78391 8.052 8.99991 7.18 9.43191 6.444C9.86391 5.708 10.4519 5.196 11.1959 4.908C11.3559 4.908 11.4359 4.988 11.4359 5.148C10.6439 5.668 10.1559 6.484 9.97191 7.596ZM20.1622 5.424C20.1622 5.76 20.0982 5.992 19.9702 6.12C19.8422 6.248 19.6542 6.312 19.4062 6.312H18.3982C18.1262 8.04 17.9902 9.684 17.9902 11.244C17.9902 11.716 17.9982 12.056 18.0142 12.264C18.0382 12.48 18.0942 12.844 18.1822 13.356C17.2782 12.996 16.8262 12.172 16.8262 10.884C16.8262 9.436 16.9742 7.936 17.2702 6.384C16.8702 6.448 16.4582 6.568 16.0342 6.744C16.0182 6.616 16.0102 6.5 16.0102 6.396C16.0102 6.012 16.1342 5.756 16.3822 5.628C16.6382 5.492 17.0022 5.424 17.4742 5.424C18.1622 2.608 19.2222 1.2 20.6542 1.2C21.1262 1.2 21.5142 1.332 21.8182 1.596C22.1222 1.86 22.2742 2.176 22.2742 2.544C22.2742 2.912 22.1662 3.224 21.9502 3.48C21.7342 3.728 21.4502 3.852 21.0982 3.852C20.9542 3.852 20.8222 3.824 20.7022 3.768C20.7982 3.68 20.8942 3.536 20.9902 3.336C21.0942 3.128 21.1462 2.916 21.1462 2.7C21.1462 2.476 21.0862 2.288 20.9662 2.136C20.8542 1.984 20.7062 1.908 20.5222 1.908C19.6742 1.908 19.0142 3.092 18.5422 5.46C19.3182 5.46 19.8502 5.344 20.1382 5.112C20.1542 5.224 20.1622 5.328 20.1622 5.424ZM25.0606 5.424C25.0606 5.76 24.9966 5.992 24.8686 6.12C24.7406 6.248 24.5526 6.312 24.3046 6.312H23.2966C23.0246 8.04 22.8886 9.684 22.8886 11.244C22.8886 11.716 22.8966 12.056 22.9126 12.264C22.9366 12.48 22.9926 12.844 23.0806 13.356C22.1766 12.996 21.7246 12.172 21.7246 10.884C21.7246 9.436 21.8726 7.936 22.1686 6.384C21.7686 6.448 21.3566 6.568 20.9326 6.744C20.9166 6.616 20.9086 6.5 20.9086 6.396C20.9086 6.012 21.0326 5.756 21.2806 5.628C21.5366 5.492 21.9006 5.424 22.3726 5.424C23.0606 2.608 24.1206 1.2 25.5526 1.2C26.0246 1.2 26.4126 1.332 26.7166 1.596C27.0206 1.86 27.1726 2.176 27.1726 2.544C27.1726 2.912 27.0646 3.224 26.8486 3.48C26.6326 3.728 26.3486 3.852 25.9966 3.852C25.8526 3.852 25.7206 3.824 25.6006 3.768C25.6966 3.68 25.7926 3.536 25.8886 3.336C25.9926 3.128 26.0446 2.916 26.0446 2.7C26.0446 2.476 25.9846 2.288 25.8646 2.136C25.7526 1.984 25.6046 1.908 25.4206 1.908C24.5726 1.908 23.9126 3.092 23.4406 5.46C24.2166 5.46 24.7486 5.344 25.0366 5.112C25.0526 5.224 25.0606 5.328 25.0606 5.424ZM28.8398 5.7C28.3598 5.7 27.9518 5.976 27.6158 6.528C27.2878 7.08 27.0678 7.728 26.9558 8.472H27.2918C27.7158 8.472 28.0838 8.412 28.3958 8.292C28.7078 8.172 28.9478 8.016 29.1158 7.824C29.4358 7.456 29.5958 7.04 29.5958 6.576C29.5958 6.312 29.5318 6.1 29.4038 5.94C29.2838 5.78 29.0958 5.7 28.8398 5.7ZM30.5318 10.56C30.1638 11.16 29.7598 11.58 29.3198 11.82C28.8798 12.06 28.3678 12.18 27.7838 12.18C27.2078 12.18 26.7038 11.924 26.2718 11.412C25.8398 10.9 25.6238 10.18 25.6238 9.252C25.6238 8.196 25.9078 7.252 26.4758 6.42C26.7558 6.02 27.1198 5.696 27.5678 5.448C28.0238 5.2 28.5238 5.076 29.0678 5.076C30.2678 5.076 30.8678 5.656 30.8678 6.816C30.8678 7.512 30.5958 8.06 30.0518 8.46C29.5158 8.852 28.8918 9.048 28.1798 9.048C27.7078 9.048 27.2838 9.004 26.9078 8.916C26.8998 8.996 26.8958 9.12 26.8958 9.288C26.8958 10.704 27.3158 11.412 28.1558 11.412C28.9478 11.412 29.5918 11.02 30.0878 10.236C30.3838 10.276 30.5318 10.384 30.5318 10.56ZM35.3437 5.7C34.8637 5.7 34.4557 5.976 34.1197 6.528C33.7917 7.08 33.5717 7.728 33.4597 8.472H33.7957C34.2197 8.472 34.5877 8.412 34.8997 8.292C35.2117 8.172 35.4517 8.016 35.6197 7.824C35.9397 7.456 36.0997 7.04 36.0997 6.576C36.0997 6.312 36.0357 6.1 35.9077 5.94C35.7877 5.78 35.5997 5.7 35.3437 5.7ZM37.0357 10.56C36.6677 11.16 36.2637 11.58 35.8237 11.82C35.3837 12.06 34.8717 12.18 34.2877 12.18C33.7117 12.18 33.2077 11.924 32.7757 11.412C32.3437 10.9 32.1277 10.18 32.1277 9.252C32.1277 8.196 32.4117 7.252 32.9797 6.42C33.2597 6.02 33.6237 5.696 34.0717 5.448C34.5277 5.2 35.0277 5.076 35.5717 5.076C36.7717 5.076 37.3717 5.656 37.3717 6.816C37.3717 7.512 37.0997 8.06 36.5557 8.46C36.0197 8.852 35.3957 9.048 34.6837 9.048C34.2117 9.048 33.7877 9.004 33.4117 8.916C33.4037 8.996 33.3997 9.12 33.3997 9.288C33.3997 10.704 33.8197 11.412 34.6597 11.412C35.4517 11.412 36.0957 11.02 36.5917 10.236C36.8877 10.276 37.0357 10.384 37.0357 10.56ZM44.1885 8.292C44.4525 7.388 44.8565 6.628 45.4005 6.012C45.9525 5.388 46.4685 5.076 46.9485 5.076C47.4285 5.076 47.7685 5.224 47.9685 5.52C48.1685 5.808 48.2685 6.204 48.2685 6.708C48.2685 7.204 48.1885 7.904 48.0285 8.808C47.8765 9.712 47.8005 10.372 47.8005 10.788C47.8005 11.196 47.8525 11.496 47.9565 11.688C48.0605 11.872 48.2365 12.032 48.4845 12.168C48.3805 12.176 48.2325 12.18 48.0405 12.18C47.5285 12.18 47.1485 12.076 46.9005 11.868C46.6605 11.652 46.5405 11.288 46.5405 10.776C46.5405 10.48 46.6205 9.884 46.7805 8.988C46.9405 8.084 47.0205 7.42 47.0205 6.996C47.0205 6.468 46.8365 6.204 46.4685 6.204C46.2525 6.204 46.0125 6.32 45.7485 6.552C45.4845 6.776 45.2285 7.084 44.9805 7.476C44.7405 7.86 44.5365 8.352 44.3685 8.952C44.2085 9.544 44.1285 10.132 44.1285 10.716C44.1285 11.292 44.1525 11.72 44.2005 12C44.0085 12.016 43.9005 12.024 43.8765 12.024C43.5005 12.024 43.2205 11.944 43.0365 11.784C42.8605 11.624 42.7725 11.376 42.7725 11.04C42.7725 10.696 42.8445 10.04 42.9885 9.072C43.4125 6.096 43.6245 3.836 43.6245 2.292C43.6245 1.596 43.5765 1.128 43.4805 0.887999C43.9445 1.056 44.2685 1.304 44.4525 1.632C44.6445 1.96 44.7405 2.412 44.7405 2.988C44.7405 3.388 44.6605 4.228 44.5005 5.508C44.3485 6.788 44.2445 7.716 44.1885 8.292ZM54.7136 8.064C54.7136 7.28 54.6136 6.72 54.4136 6.384C54.2216 6.04 53.9416 5.868 53.5736 5.868C53.2136 5.868 52.8496 6.048 52.4816 6.408C52.1136 6.76 51.8216 7.2 51.6056 7.728C51.3976 8.248 51.2936 8.792 51.2936 9.36C51.2936 9.92 51.4016 10.408 51.6176 10.824C51.8336 11.232 52.1616 11.436 52.6016 11.436C53.2256 11.436 53.7336 11.068 54.1256 10.332C54.5176 9.596 54.7136 8.84 54.7136 8.064ZM51.2336 7.596C51.5376 6.732 51.9456 6.104 52.4576 5.712C52.9776 5.312 53.5016 5.112 54.0296 5.112C54.5656 5.112 55.0096 5.348 55.3616 5.82C55.7136 6.284 55.8896 6.916 55.8896 7.716C55.8896 8.596 55.7216 9.412 55.3856 10.164C55.0096 10.996 54.4656 11.576 53.7536 11.904C53.3696 12.088 52.9456 12.18 52.4816 12.18C51.8336 12.18 51.2656 11.912 50.7776 11.376C50.2896 10.832 50.0456 10.06 50.0456 9.06C50.0456 8.052 50.2616 7.18 50.6936 6.444C51.1256 5.708 51.7136 5.196 52.4576 4.908C52.6176 4.908 52.6976 4.988 52.6976 5.148C51.9056 5.668 51.4176 6.484 51.2336 7.596ZM61.9519 5.052C62.6399 5.052 62.9839 5.408 62.9839 6.12C62.9839 6.248 62.9079 6.812 62.7559 7.812C62.6039 8.804 62.5279 9.656 62.5279 10.368C62.5279 11.08 62.6039 11.708 62.7559 12.252C62.2679 12.06 61.9279 11.788 61.7359 11.436C61.5519 11.084 61.4599 10.648 61.4599 10.128C61.4599 9.928 61.5039 9.476 61.5919 8.772C61.3519 9.684 60.9799 10.452 60.4759 11.076C59.9719 11.692 59.5039 12 59.0719 12C58.1599 12 57.7039 11.336 57.7039 10.008C57.7039 9.568 57.7679 8.956 57.8959 8.172C58.0319 7.38 58.0999 6.78 58.0999 6.372C58.0999 5.964 58.0439 5.552 57.9319 5.136C58.4439 5.136 58.8279 5.224 59.0839 5.4C59.3399 5.576 59.4679 5.916 59.4679 6.42C59.4679 6.692 59.3839 7.252 59.2159 8.1C59.0479 8.948 58.9639 9.576 58.9639 9.984C58.9639 10.576 59.1479 10.872 59.5159 10.872C59.8199 10.872 60.1359 10.636 60.4639 10.164C60.7999 9.684 61.0799 9.064 61.3039 8.304C61.5279 7.544 61.6399 6.792 61.6399 6.048C61.6399 5.712 61.6159 5.388 61.5679 5.076C61.7439 5.06 61.8719 5.052 61.9519 5.052ZM67.3452 5.664C67.0812 5.664 66.8412 5.748 66.6252 5.916C66.4172 6.084 66.3132 6.316 66.3132 6.612C66.3132 6.9 66.4092 7.172 66.6012 7.428C66.8012 7.684 67.0412 7.912 67.3212 8.112C67.6012 8.312 67.8852 8.516 68.1732 8.724C68.8452 9.22 69.1812 9.752 69.1812 10.32C69.1812 10.888 68.9532 11.352 68.4972 11.712C68.0412 12.064 67.4572 12.24 66.7452 12.24C66.0412 12.24 65.4932 12.1 65.1012 11.82C64.7172 11.54 64.5252 11.212 64.5252 10.836C64.5252 10.452 64.6212 10.152 64.8132 9.936C65.0052 9.72 65.2372 9.612 65.5092 9.612C65.6532 9.612 65.7892 9.644 65.9172 9.708C65.7412 9.932 65.6532 10.196 65.6532 10.5C65.6532 10.804 65.7452 11.06 65.9292 11.268C66.1212 11.476 66.3812 11.58 66.7092 11.58C67.0452 11.58 67.3292 11.496 67.5612 11.328C67.7932 11.152 67.9092 10.932 67.9092 10.668C67.9092 10.404 67.8412 10.172 67.7052 9.972C67.5692 9.772 67.3972 9.6 67.1892 9.456C66.9892 9.312 66.7692 9.152 66.5292 8.976C66.2892 8.8 66.0652 8.628 65.8572 8.46C65.6572 8.284 65.4892 8.068 65.3532 7.812C65.2172 7.548 65.1492 7.26 65.1492 6.948C65.1492 6.38 65.3652 5.916 65.7972 5.556C66.2292 5.188 66.7732 5.004 67.4292 5.004C68.0852 5.004 68.5652 5.14 68.8692 5.412C69.1732 5.684 69.3252 5.992 69.3252 6.336C69.3252 6.672 69.2412 6.952 69.0732 7.176C68.9052 7.392 68.6892 7.5 68.4252 7.5C68.2972 7.5 68.1492 7.464 67.9812 7.392C68.1892 7.136 68.2932 6.86 68.2932 6.564C68.2932 6.268 68.2012 6.044 68.0172 5.892C67.8412 5.74 67.6172 5.664 67.3452 5.664ZM73.9687 5.7C73.4887 5.7 73.0807 5.976 72.7447 6.528C72.4167 7.08 72.1967 7.728 72.0847 8.472H72.4207C72.8447 8.472 73.2127 8.412 73.5247 8.292C73.8367 8.172 74.0767 8.016 74.2447 7.824C74.5647 7.456 74.7247 7.04 74.7247 6.576C74.7247 6.312 74.6607 6.1 74.5327 5.94C74.4127 5.78 74.2247 5.7 73.9687 5.7ZM75.6607 10.56C75.2927 11.16 74.8887 11.58 74.4487 11.82C74.0087 12.06 73.4967 12.18 72.9127 12.18C72.3367 12.18 71.8327 11.924 71.4007 11.412C70.9687 10.9 70.7527 10.18 70.7527 9.252C70.7527 8.196 71.0367 7.252 71.6047 6.42C71.8847 6.02 72.2487 5.696 72.6967 5.448C73.1527 5.2 73.6527 5.076 74.1967 5.076C75.3967 5.076 75.9967 5.656 75.9967 6.816C75.9967 7.512 75.7247 8.06 75.1807 8.46C74.6447 8.852 74.0207 9.048 73.3087 9.048C72.8367 9.048 72.4127 9.004 72.0367 8.916C72.0287 8.996 72.0247 9.12 72.0247 9.288C72.0247 10.704 72.4447 11.412 73.2847 11.412C74.0767 11.412 74.7207 11.02 75.2167 10.236C75.5127 10.276 75.6607 10.384 75.6607 10.56Z" fill="black"/>
</svg>
